<?xml version="1.0" standalone="no"?>
<!DOCTYPE svg PUBLIC "-//W3C//DTD SVG 20010904//EN"
 "http://www.w3.org/TR/2001/REC-SVG-20010904/DTD/svg10.dtd">
<svg version="1.0" xmlns="http://www.w3.org/2000/svg"
 width="128.000000pt" height="128.000000pt" viewBox="0 0 128.000000 128.000000"
 preserveAspectRatio="xMidYMid meet">
<metadata>
Created by potrace 1.11, written by Peter Selinger 2001-2013
</metadata>
<g transform="translate(0.000000,128.000000) scale(0.100000,-0.100000)"
fill="#000000" stroke="none">
<path d="M2 643 l3 -638 638 -3 637 -2 0 640 0 640 -640 0 -640 0 2 -637z
m899 -196 l-23 -22 17 28 c10 15 20 25 23 22 3 -3 -5 -16 -17 -28z m-661 -210
c0 -1 -53 -54 -117 -117 l-118 -115 115 118 c107 109 120 122 120 114z"/>
</g>
</svg>
